/* XPM */
static char *tex_south[] = {
"16 16 2 1",
"G c #228B22",
"D c #1E6B1E",
"GGDDGGDDGGDDGGDD",
"GGDDGGDDGGDDGGDD",
"DDGGDDGGDDGGDDGG",
"DDGGDDGGDDGGDDGG",
"GGDDGGDDGGDDGGDD",
"GGDDGGDDGGDDGGDD",
"DDGGDDGGDDGGDDGG",
"DDGGDDGGDDGGDDGG",
"GGDDGGDDGGDDGGDD",
"GGDDGGDDGGDDGGDD",
"DDGGDDGGDDGGDDGG",
"DDGGDDGGDDGGDDGG",
"GGDDGGDDGGDDGGDD",
"GGDDGGDDGGDDGGDD",
"DDGGDDGGDDGGDDGG",
"DDGGDDGGDDGGDDGG"
};
