/* XPM */
static char *tex_north[] = {
"16 16 2 1",
"R c #B22222",
"D c #8B1A1A",
"RRDDRRDDRRDDRRDD",
"RRDDRRDDRRDDRRDD",
"DDRRDDRRDDRRDDRR",
"DDRRDDRRDDRRDDRR",
"RRDDRRDDRRDDRRDD",
"RRDDRRDDRRDDRRDD",
"DDRRDDRRDDRRDDRR",
"DDRRDDRRDDRRDDRR",
"RRDDRRDDRRDDRRDD",
"RRDDRRDDRRDDRRDD",
"DDRRDDRRDDRRDDRR",
"DDRRDDRRDDRRDDRR",
"RRDDRRDDRRDDRRDD",
"RRDDRRDDRRDDRRDD",
"DDRRDDRRDDRRDDRR",
"DDRRDDRRDDRRDDRR"
};
