/* XPM */
static char *tex_east[] = {
"16 16 2 1",
"Y c #DAA520",
"D c #B8860B",
"YYDDYYDDYYDDYYDD",
"YYDDYYDDYYDDYYDD",
"DDYYDDYYDDYYDDYY",
"DDYYDDYYDDYYDDYY",
"YYDDYYDDYYDDYYDD",
"YYDDYYDDYYDDYYDD",
"DDYYDDYYDDYYDDYY",
"DDYYDDYYDDYYDDYY",
"YYDDYYDDYYDDYYDD",
"YYDDYYDDYYDDYYDD",
"DDYYDDYYDDYYDDYY",
"DDYYDDYYDDYYDDYY",
"YYDDYYDDYYDDYYDD",
"YYDDYYDDYYDDYYDD",
"DDYYDDYYDDYYDDYY",
"DDYYDDYYDDYYDDYY"
};
