/* XPM */
static char *north_xpm[] = {
"32 32 2 1",
"0 c #101010",
"1 c #E0E0E0",
"00000000000000000000000000000000",
"00000000000000000000000000000000",
"00000000000000000000000000000000",
"00000000000000000000000000000000",
"00000000000000000000000000000000",
"00000000000000000000000000000000",
"00000000110000000000001100000000",
"00000000111000000000001100000000",
"00000000111100000000001100000000",
"00000000110110000000001100000000",
"00000000110011000000001100000000",
"00000000110001100000001100000000",
"00000000110000110000001100000000",
"00000000110000011000001100000000",
"00000000110000001100001100000000",
"00000000110000000110001100000000",
"00000000110000000011001100000000",
"00000000110000000001101100000000",
"00000000110000000000111100000000",
"00000000110000000000011100000000",
"00000000110000000000001100000000",
"00000000110000000000001100000000",
"00000000110000000000001100000000",
"00000000110000000000001100000000",
"00000000110000000000001100000000",
"00000000110000000000001100000000",
"00000000000000000000000000000000",
"00000000000000000000000000000000",
"00000000000000000000000000000000",
"00000000000000000000000000000000",
"00000000000000000000000000000000",
"00000000000000000000000000000000"
};
