/* XPM */
static char *south_xpm[] = {
"32 32 2 1",
"0 c #101010",
"1 c #E0E0E0",
"00000000000000000000000000000000",
"00000000000000000000000000000000",
"00000000000000000000000000000000",
"00000000000000000000000000000000",
"00000000000000000000000000000000",
"00000000000000000000000000000000",
"00000000111111111111111100000000",
"00000000111111111111111100000000",
"00000000110000000000000000000000",
"00000000110000000000000000000000",
"00000000110000000000000000000000",
"00000000110000000000000000000000",
"00000000110000000000000000000000",
"00000000110000000000000000000000",
"00000000111111111111111100000000",
"00000000111111111111111100000000",
"00000000000000000000001100000000",
"00000000000000000000001100000000",
"00000000000000000000001100000000",
"00000000000000000000001100000000",
"00000000000000000000001100000000",
"00000000000000000000001100000000",
"00000000000000000000001100000000",
"00000000000000000000001100000000",
"00000000111111111111111100000000",
"00000000111111111111111100000000",
"00000000000000000000000000000000",
"00000000000000000000000000000000",
"00000000000000000000000000000000",
"00000000000000000000000000000000",
"00000000000000000000000000000000",
"00000000000000000000000000000000"
};
