/* XPM */
static char *west_xpm[] = {
"32 32 2 1",
"0 c #101010",
"1 c #E0E0E0",
"00000000000000000000000000000000",
"00000000000000000000000000000000",
"00000000000000000000000000000000",
"00000000000000000000000000000000",
"00000000000000000000000000000000",
"00000000000000000000000000000000",
"00000000111100000000001100000000",
"00000000111100000000001100000000",
"00000000111100000000001100000000",
"00000000111100000000001100000000",
"00000000111110000000111100000000",
"00000000111110000000111100000000",
"00000000110011000001101100000000",
"00000000110011000001101100000000",
"00000000110001100011001100000000",
"00000000110001100011001100000000",
"00000000110000110110001100000000",
"00000000110000110110001100000000",
"00000000110000011100001100000000",
"00000000110000011100001100000000",
"00000000110000011100001100000000",
"00000000110000011100001100000000",
"00000000110000110110001100000000",
"00000000110000110110001100000000",
"00000000110001100011001100000000",
"00000000110001100011001100000000",
"00000000000000000000000000000000",
"00000000000000000000000000000000",
"00000000000000000000000000000000",
"00000000000000000000000000000000",
"00000000000000000000000000000000",
"00000000000000000000000000000000"
};