/* XPM */
static char *west_xpm[] = {
"32 32 2 1",
"0 c #101010",
"1 c #E0E0E0",
"00000000000000000000000000000000",
"00000000000000000000000000000000",
"00000000000000000000000000000000",
"00000000000000000000000000000000",
"00000000000000000000000000000000",
"00000000000000000000000000000000",
"00000011000000000000000011000000",
"00000011000000000000000011000000",
"00000011000000000000000011000000",
"00000011000000000000000011000000",
"00000011000000000000000011000000",
"00000011000000000000000011000000",
"00000011000000011000000011000000",
"00000011000000011000000011000000",
"00000011000001100110000011000000",
"00000011000001100110000011000000",
"00000011000011000011000011000000",
"00000011000011000011000011000000",
"00000011000110000001100011000000",
"00000011000110000001100011000000",
"00000011001100000000110011000000",
"00000011001100000000110011000000",
"00000011110000000000001111000000",
"00000011110000000000001111000000",
"00000011000000000000000011000000",
"00000011000000000000000011000000",
"00000000000000000000000000000000",
"00000000000000000000000000000000",
"00000000000000000000000000000000",
"00000000000000000000000000000000",
"00000000000000000000000000000000",
"00000000000000000000000000000000"
};
